<?xml version="1.0" standalone="no"?>
<!DOCTYPE svg PUBLIC "-//W3C//DTD SVG 20010904//EN"
 "http://www.w3.org/TR/2001/REC-SVG-20010904/DTD/svg10.dtd">
<svg version="1.0" xmlns="http://www.w3.org/2000/svg"
 width="116.000000pt" height="116.000000pt" viewBox="0 0 116.000000 116.000000"
 preserveAspectRatio="xMidYMid meet">

<g transform="translate(0.000000,116.000000) scale(0.100000,-0.100000)"
fill="#000000" stroke="none">
<path d="M0 933 l0 -228 35 84 c19 46 41 91 50 101 8 9 15 21 15 26 0 15 121
129 168 158 24 15 76 40 115 56 l72 29 -227 1 -228 0 0 -227z"/>
<path d="M777 1131 c39 -16 95 -43 124 -60 l52 -33 61 61 61 61 -185 0 -185
-1 72 -28z"/>
<path d="M1103 1133 l26 -28 -60 -67 c-34 -38 -55 -69 -49 -73 21 -13 88 -122
113 -185 l26 -65 1 223 0 222 -42 0 -42 0 27 -27z"/>
<path d="M465 1121 c-16 -6 -11 -11 30 -27 60 -23 116 -22 169 1 30 13 36 19
25 26 -17 11 -196 11 -224 0z"/>
<path d="M780 1091 c0 -18 120 -93 137 -86 15 5 14 7 -3 19 -53 36 -134 76
-134 67z"/>
<path d="M309 1061 c-53 -30 -152 -111 -145 -118 5 -5 80 45 131 87 17 14 42
33 55 42 38 26 10 19 -41 -11z"/>
<path d="M323 1012 c-26 -21 -67 -51 -90 -67 l-43 -28 0 -98 0 -98 38 -10
c122 -33 124 -33 167 -1 22 17 70 52 107 78 l68 47 0 76 c0 64 -3 78 -17 84
-46 18 -158 55 -169 55 -7 0 -34 -17 -61 -38z"/>
<path d="M680 1021 l-75 -27 -3 -81 -3 -81 47 -32 46 -32 94 93 c52 52 94 98
94 104 0 11 -103 85 -117 84 -4 0 -42 -13 -83 -28z"/>
<path d="M857 816 c-97 -104 -97 -104 -74 -119 24 -16 80 -11 155 14 l32 11 0
99 c0 54 -4 99 -8 99 -5 0 -52 -47 -105 -104z"/>
<path d="M78 804 c-31 -67 -55 -160 -45 -170 8 -8 41 29 63 69 10 19 14 49 12
95 l-3 67 -27 -61z"/>
<path d="M1055 787 c0 -67 2 -75 34 -114 19 -24 38 -43 42 -43 11 0 -19 119
-46 178 -13 28 -25 52 -27 52 -2 0 -3 -33 -3 -73z"/>
<path d="M127 616 c-42 -55 -53 -76 -47 -91 4 -12 18 -61 30 -110 13 -50 26
-93 29 -97 4 -4 27 -14 52 -21 l46 -14 82 88 81 88 -21 78 c-12 43 -24 86 -26
96 -3 9 -17 20 -32 23 -14 3 -51 11 -82 18 l-57 13 -55 -71z"/>
<path d="M930 674 c-25 -7 -57 -13 -71 -13 -34 -1 -43 -13 -64 -86 -9 -33 -26
-86 -37 -118 l-19 -58 45 -72 45 -73 95 31 95 30 16 60 c10 33 25 84 36 114
l19 54 -44 62 c-59 82 -62 83 -116 69z"/>
<path d="M32 502 c11 -63 45 -165 63 -188 9 -12 5 13 -11 71 -13 50 -27 104
-30 122 -4 17 -12 34 -19 37 -9 3 -10 -7 -3 -42z"/>
<path d="M1126 541 c-11 -17 -64 -184 -70 -221 -5 -30 -1 -26 24 26 36 73 76
244 46 195z"/>
<path d="M0 228 l0 -228 223 0 222 0 -57 24 c-60 24 -143 70 -169 92 -13 12
-23 5 -74 -46 l-59 -60 -28 27 -28 26 56 63 55 63 -34 48 c-41 58 -64 101 -88
168 l-18 50 -1 -227z"/>
<path d="M1150 426 c0 -26 -52 -131 -95 -191 -69 -97 -172 -172 -302 -220 -35
-12 -18 -14 185 -14 l222 -1 0 220 c0 121 -2 220 -5 220 -3 0 -5 -6 -5 -14z"/>
<path d="M438 363 c-8 -10 -32 -44 -52 -75 l-37 -57 49 -68 48 -68 130 -3 129
-3 45 68 c25 37 46 70 48 74 2 4 -16 39 -39 78 l-43 71 -131 0 c-113 0 -134
-2 -147 -17z"/>
<path d="M915 201 c-35 -12 -57 -28 -73 -52 -13 -18 -30 -41 -38 -50 -29 -32
4 -29 63 5 71 42 147 116 118 115 -11 0 -42 -8 -70 -18z"/>
<path d="M247 172 c-10 -10 -17 -22 -17 -25 0 -9 102 -67 118 -67 13 0 -11 40
-52 88 -24 27 -28 27 -49 4z"/>
<path d="M460 38 c34 -15 220 -15 245 0 16 9 -10 11 -125 11 -114 0 -140 -3
-120 -11z"/>
</g>
</svg>
