<svg xmlns="http://www.w3.org/2000/svg" width="512" height="512" viewBox="0 0 465.1 465.1"><style>.a{fill:#fe4e50;}</style><path d="M373.9 165.8c12.6 0 22.7 10.2 22.7 22.7 0 12.5-10.2 22.7-22.7 22.7 -12.5 0-22.7-10.2-22.7-22.7C351.2 175.9 361.4 165.8 373.9 165.8z" class="a"/><path d="M249.5 380.1c6.1-6.4 6-16.3 0.1-22.6l-29.7 8.5 -7.2 2.3c4.4 4 9.1 8.4 13.4 12.4 3.2 3 7.3 4.6 11.4 4.6C241.9 385.2 246.3 383.5 249.5 380.1z" class="a"/><path d="M319 331.5l0.7 0.5 2.5-2.9 2.3-2.7 5.5-6.3 3-3.4 50.9-58.3 17.1 39.8c0.5 1.1 1 2 1.8 2.9l40.3 49.6c2.5 3 6 4.6 9.6 4.6 2.7 0 5.5-0.9 7.8-2.8 5.3-4.3 6.1-12.1 1.8-17.4l-39.2-48.2 -18.4-42.8c-0.9-2-2.3-3.6-4-4.8l0.1-0.1 -1.7-1.1 -62-39.6 -2.4-1.6 -2.5-1.6 -0.4 0.6c-0.8-0.2-1.6-0.2-2.4-0.2H276.6l-43.4-21c-0.1-0.1-0.3-0.1-0.4-0.1 1.7-7.4 3.2-16.6 1.5-22 -1.6-5.1-3.4-10.9-56-31.5 -0.8-0.3-1.7-0.5-2.5-0.7l0-0.2h-73.7c0 0 0 0 0 0.1 -1.3 0-2.6 0.1-3.9 0.5 -4 1.2-18.3 7.7-35.4 40.3 -15.8 30.2-23.3 44.2-23.4 44.3 -3.2 6-0.9 13.5 5.1 16.7 1.8 1 3.8 1.5 5.8 1.5 4.4 0 8.7-2.4 10.9-6.5 0.1-0.1 7.6-14.2 23.5-44.5 9.7-18.5 17.1-25.3 20.1-27.5 -0.6 25.5-10.6 47.5-17.1 59l-57.4 79.9c-0.7 1-1.3 2.1-1.8 3.3l-27 64.2c-3.6 8.5 0.4 18.4 9 22 2.1 0.9 4.3 1.3 6.5 1.3 6.6 0 12.8-3.9 15.5-10.3l26.2-62.4 59-82.1 5.6 1.2 -7.5 51.5 -26 10c-8.7 3.3-13 13-9.7 21.7 2.6 6.7 8.9 10.8 15.7 10.8 2 0 4-0.4 6-1.1l35.2-13.5c5.7-2.2 9.7-7.2 10.6-13.2l10.5-72.1c0.1-0.4 0-0.8 0.1-1.2l13.2-69.2c14.8 5.9 31.7 13.2 39 17.3 -1.4 9.6-7.3 30.2-14.7 37.7 -4.8 4.8-4.8 12.6 0 17.4 2.4 2.4 5.6 3.6 8.7 3.6 3.2 0 6.3-1.2 8.7-3.6 5.1-5.1 9.1-12 12.2-19l43.4 21c1.7 0.8 3.5 1.2 5.4 1.2h39.8l-50.7 68.7c-24.9 13.6-55.1 30-63.9 34.7 -1.7 0.6-3.5 1.6-5.3 2.9 -0.9 0.7-1.8 1.5-2.5 2.4l15.8-5 0.6-0.2 48-13.7c0 0.3-0.2 0.5-0.2 0.9 0 0.7 0.1 1.3 0.2 2 0.2 0.9 0.5 1.7 1 2.6l-47.5 13.6c-0.2 0.1-0.3 0.1-0.5 0.1l-21 6.7 -29.8 9.5c0.3-1 0.7-2.1 0.9-3.2 0.2-1 0.3-2 0.3-3 0-0.2 0.1-0.5 0.1-0.7 0-11.9-9.6-21.5-21.5-21.5 -11.9 0-21.5 9.6-21.5 21.5 0 4.9 1.7 9.4 4.5 13 0.6 0.8 1.2 1.6 1.9 2.3 0.8 0.8 1.6 1.4 2.5 2.1l-8.8 2.8c-8.7 2.8-13.5 12.1-10.7 20.8 2.2 7 8.7 11.5 15.7 11.5 1.7 0 3.4-0.2 5-0.8l82-26.1 10.2-3.3 26.8-7.7 70.5-20.2C316.8 332.6 317.9 332.1 319 331.5z" class="a"/><circle cx="137.4" cy="94.8" r="20.7" class="a"/></svg>