<svg xmlns="http://www.w3.org/2000/svg" viewBox="0 0 512 512" width="48" height="48">
    <polygon points="0 76.6 0 435.4 15.2 435.4 15.2 91.8 496.8 91.8 496.8 435.4 512 435.4 512 76.6 " class="a"/><path
        d="M159 116.7v15.2h286.9l-25.3 25.3H91.4l-25.3-25.3h72.6V116.7H40.1v318.7h15.2V142.7l25.3 25.3v234h15.2v-51.7h40.7v51.7h15.2v-51.7h40.7v51.7h15.2v-51.7h40.7v51.7h15.2v-51.7h40.7v51.7h15.2v-51.7h40.7v51.7h15.2v-51.7h40.7v51.7h15.2V168l25.3-25.3v292.8h15.2V116.7H159zM95.9 172.5h40.7v44.1H95.9V172.5zM136.6 335.1H95.9v-44.1h40.7V335.1zM136.6 275.8H95.9v-44.1h40.7V275.8zM192.5 335.1h-40.7v-44.1h40.7V335.1zM192.5 275.8h-40.7v-44.1h40.7V275.8zM192.5 216.5h-40.7v-44.1h40.7V216.5zM248.4 335.1h-40.7v-44.1h40.7V335.1zM248.4 275.8h-40.7v-44.1h40.7V275.8zM248.4 216.5h-40.7v-44.1h40.7V216.5zM304.3 335.1h-40.7v-44.1h40.7V335.1zM304.3 275.8h-40.7v-44.1h40.7V275.8zM304.3 216.5h-40.7v-44.1h40.7V216.5zM360.2 335.1h-40.7v-44.1h40.7V335.1zM360.2 275.8h-40.7v-44.1h40.7V275.8zM360.2 216.5h-40.7v-44.1h40.7V216.5zM416.1 335.1h-40.7v-44.1h40.7V335.1zM416.1 275.8h-40.7v-44.1h40.7V275.8zM416.1 216.5h-40.7v-44.1h40.7V216.5z"
        class="a"/>
</svg>
