<svg xmlns="http://www.w3.org/2000/svg" width="512" height="512" viewBox="0 0 24 24"><style>.a{fill:#fe4e50;}</style><path d="M17.5 20v-1.4l-0.1-0.1c-0.1 0.1-0.3 0.1-0.4 0.1 0 0 0 0 0 0 -0.2 0-0.3 0-0.4-0.1v1.4c-0.5 0.2-0.8 0.6-0.8 1.2h2.5C18.2 20.6 17.9 20.2 17.5 20L17.5 20zM17.5 20" class="a"/><path d="M20.6 19.9v-1.4c-0.1 0.1-0.3 0.1-0.4 0.1 0 0 0 0 0 0 -0.1 0-0.3-0.1-0.4-0.1l-0.1 0.1v1.4c-0.4 0.2-0.7 0.6-0.7 1.1h2.5C21.4 20.6 21.1 20.1 20.6 19.9L20.6 19.9zM20.6 19.9" class="a"/><path d="M16.5 16.1v1c0.1-0.1 0.2-0.1 0.4-0.1 0.2 0 0.4 0.1 0.6 0.2l0-1.1L16.5 16.1z" class="a"/><path d="M19.7 16.1l0 1.1c0.2-0.1 0.4-0.2 0.6-0.2 0.1 0 0.3 0 0.4 0.1v-1L19.7 16.1z" class="a"/><polygon points="17.3 10.8 15.5 10.8 15.6 11.8 15.9 15.8 16.5 15.8 17.5 15.8 19.6 15.8 20.6 15.8 21.2 15.8 21.5 11.8 21.5 10.8 19.8 10.8 " class="a"/><path d="M23.9 16.2c0 0 0 0 0 0 0 0 0 0 0 0 0-0.2-0.2-0.4-0.4-0.4h-0.1v-1.6c-0.1 0.1-0.3 0.2-0.5 0.2 0 0 0 0 0 0 -0.2 0-0.3-0.1-0.4-0.1l0 0v1.5h-0.1c-0.2 0-0.4 0.2-0.4 0.4 0 0 0 0 0 0 0 0 0 0.1 0 0.1v0.5c0 0.2 0.2 0.4 0.4 0.4 0.2 0 0.4-0.2 0.4-0.4v-0.2l0.6 0v0.2c0 0.2 0.2 0.4 0.4 0.4 0.2 0 0.4-0.2 0.4-0.4L23.9 16.2zM23.9 16.2" class="a"/><path d="M21.7 11.9c0.2 0.2 0.5 0.5 0.6 0.9 0.2-0.2 0.4-0.3 0.6-0.2l0 0c0.1 0 0.2 0 0.3 0.1 -0.2-0.8-0.9-1.6-1.5-1.8L21.7 11.9z" class="a"/><circle cx="22.9" cy="13.4" r="0.5" class="a"/><path d="M17.2 4.9c0-0.3 0.2-0.7 0.5-1 -0.2 0-0.4-0.2-0.5-0.4l0 0c-0.1-0.1-0.1-0.2-0.1-0.3 -0.6 0.6-0.9 1.6-0.8 2.3L17.2 4.9z" class="a"/><path d="M19.7 0.8c0 0 0 0 0 0 0 0 0 0 0 0 -0.2 0.1-0.3 0.4-0.1 0.6l0 0.1 -1.3 0.8c0.2 0.1 0.3 0.2 0.4 0.3 0 0 0 0 0 0 0.1 0.1 0.1 0.3 0.1 0.4l0.1 0 1.3-0.8 0 0.1c0.1 0.2 0.4 0.3 0.6 0.1 0 0 0 0 0 0 0 0 0.1 0 0.1 0l0.5-0.3c0.2-0.1 0.2-0.3 0.1-0.5 -0.1-0.2-0.3-0.2-0.5-0.1l-0.2 0.1L20.4 1.3l0.2-0.1c0.2-0.1 0.2-0.3 0.1-0.5 -0.1-0.2-0.3-0.2-0.5-0.1L19.7 0.8zM19.7 0.8" class="a"/><circle cx="17.8" cy="3.2" r="0.5" class="a"/><circle cx="16.9" cy="17.8" r="0.5" class="a"/><circle cx="20.1" cy="17.8" r="0.5" class="a"/><path d="M4 11.3c0 1.1-0.9 2-2 2S0 12.4 0 11.3c0-1.1 0.9-2 2-2S4 10.2 4 11.3L4 11.3zM4 11.3" class="a"/><path d="M16.1 7.1c-0.5-0.5-1.4-0.2-1.9 0.3l-4.8 4.9 -1.7 0.2c-0.2 0.1-0.4 0-0.6-0.1l-0.2-0.2 3.4-2.6c0.5-0.4 0.6-1.1 0.2-1.6 -0.4-0.5-1.1-0.6-1.6-0.2L5.2 10.5c-0.2 0.2-0.4 0.4-0.4 0.7 0 0 0 0 0 0 0 0-1.3 2.1-1.3 2.2 -0.3 0.4-0.3 0.8-0.1 1.3l2 3.6c0.2 0.4 0.6 0.6 1 0.6 0.2 0 0.4 0 0.6-0.1 0.6-0.3 0.8-1 0.5-1.6l-0.9-1.6 2 0.1v6.5c0 0.7 0.3 1.3 1 1.3 0.7 0 1-0.6 1-1.3V14.3c0 0 0 0 0-0.1l5.1-5.4C16.3 8.4 16.7 7.6 16.1 7.1L16.1 7.1zM16.1 7.1" class="a"/><path d="M24 6.9l-0.5-0.7c0.1-0.2-0.1-0.5-0.3-0.9l-0.1-0.2c0 0 0 0 0 0s0 0 0 0c0.2-0.2 0.6-0.9 0.3-1.5 0.1-0.1 0.1-0.3 0-0.4 -0.1-0.2-0.4-0.2-0.5-0.1C22.6 3.2 22.6 3.4 22.7 3.6c0.1 0.1 0.3 0.2 0.5 0.1 0.1 0.5-0.2 1-0.3 1.2 -0.3-0.3-0.6-0.5-0.8-0.5l-0.5-0.7c-0.5-0.6-2.8 2.1-2.8 2.1l2.4 3.1C21.2 9 24.4 7.5 24 6.9zM20.4 5.4l0.1-0.4L20.9 5l0.1-0.5 0.4 0.1 -0.1 0.5 0.5 0.1 -0.1 0.4 -0.5-0.1 -0.1 0.5 -0.4-0.1 0.1-0.5L20.4 5.4zM20 6.4l0.4-0.3 0.4 0.6 0.4 0.6 -0.4 0.3L20 6.4zM22.5 7.6l-0.4-0.1 0.1-0.5 -0.5-0.1 0.1-0.4 0.5 0.1 0.1-0.5 0.4 0.1 -0.1 0.5 0.5 0.1 -0.1 0.4 -0.5-0.1L22.5 7.6z" class="a"/></svg>