<svg xmlns="http://www.w3.org/2000/svg" viewBox="0 0 461.8 461.8" width="512" height="512"><style>.a{fill:#fe4e50;}</style><circle cx="71.4" cy="105.4" r="24.4" class="a"/><circle cx="437.4" cy="105.4" r="24.4" class="a"/><path d="M442.9 251.6l7.4-90.4c0.8-9.8-6.5-18.5-16.4-19.3l-31.8-2.6c-9.8-0.8-18.5 6.5-19.3 16.4l-0.3 3.1 23.3-5.4 -31.6 17.4c-2.6 1.4-4.6 3.8-5.5 6.6l-17.1 50c-1.1 3.2-0.7 6.6 0.8 9.4 -4.6 0-173.5 0-234.3 0 1.3-4.7-0.4-9.9-4.6-12.9l-39.4-27.8 -6.8-30.8 11.6 21.7 3.1 2.2 2.3-28c0.8-9.8-6.5-18.5-16.4-19.3l-31.8-2.6c-9.8-0.8-18.5 6.5-19.3 16.4l-5.7 91.6 7.5 48.9 -18.3 66.6c-2.1 7.6 2.4 15.4 10 17.5 7.6 2.1 15.4-2.4 17.5-10l19.1-69.6c0.5-1.9 0.6-4 0.3-5.9l-6.9-45.1 5.5 0.5 17 46.4L48.9 363.6c-1.6 7.7 3.3 15.3 11 16.9 7.7 1.6 15.3-3.3 16.9-11l15.1-71.1c0.6-2.6 0.4-5.3-0.6-7.9l-14.3-38.9 0.9-11.4c-11.5-8.1-25.7-18.1-30.7-21.7 -3.6-2.5-5.4-6.6-5.1-10.7l2.2-37.5 7.8 35.3c0.6 2.9 2.3 5.4 4.8 7.2l43.2 30.5c1.8 1.3 3.8 2 5.9 2.1 -0.1 0.6-0.2 1.1-0.2 1.7 0 5.8 4.7 10.4 10.4 10.4h237.4c5.8 0 10.4-4.7 10.4-10.4 0-1.4-0.3-2.8-0.8-4.1 4.9 0 9.5-3.1 11.2-8l15.6-45.6 27.6-15.2 -17.6 17.3 -16 46.8c-1.3 3.7-3.4 7-6.5 9.6l7.4 48.3 -18.3 66.6c-2.1 7.6 2.4 15.4 10 17.5 7.6 2.1 15.4-2.4 17.5-10l19.1-69.6c0.5-1.9 0.6-4 0.3-5.9l-6.9-45.1 5.5 0.5 17 46.4 -14.2 67.1c-1.6 7.7 3.3 15.3 11 16.9 7.7 1.6 15.3-3.3 16.9-11l15.1-71.1c0.6-2.6 0.4-5.3-0.6-7.9L442.9 251.6z" class="a"/><path d="M185.5 224.2l17.8 0.1 -19.5-20.2 33.8 21.7c2.7 1.8 6.2 1.9 9 0.7l12.6-5.5 22.4-9.8c4.8-2.1 7.1-7.8 4.9-12.6 -2.1-4.9-7.8-7-12.6-4.9l-30.3 13.3 -30.6-19.7 30.2 9.9 27.1-11.9c9.5-4.2 20.6 0.2 24.7 9.7 4.1 9.5-0.1 20.6-9.7 24.7 -6.4 2.8-4.9 2.1-11.3 5 9.4 0.1 10.3 0.2 12.9-0.4 5.2 0.2 9.9-3 11.7-7.9l14.9-39.7c9 11.4 31 39.1 34 42.8 4.2 5.3 11.8 6.1 17 2 5.3-4.2 6.1-11.8 2-17l-47.3-59.6c-2.7-3.4-7.1-5.1-11.4-4.4 -4.3 0.7-7.9 3.6-9.5 7.7 -4.8 12.8-6.9 18.3-11.7 31.1l-80.5-3c-6.7-0.2-12.3 5.1-12.3 11.8l-0.2 24.2C173.6 218.8 178.9 224.2 185.5 224.2z" class="a"/><path d="M140.7 223.4c12.4 0.1 22.5-10 22.6-22.3 0.1-12.4-9.9-22.5-22.3-22.6 -12.4-0.1-22.5 9.9-22.6 22.3C118.3 213.2 128.3 223.4 140.7 223.4z" class="a"/></svg>