<svg xmlns="http://www.w3.org/2000/svg" viewBox="0 0 460.8 460.8" width="512" height="512"><style>.a{fill:#fe4e50;}</style><path d="M375.2 230.4l55.6-55.6c19.3-19.3 30-45.1 30-72.4 0-27.4-10.7-53.1-30-72.4C411.5 10.7 385.8 0 358.4 0c-27.4 0-53.1 10.7-72.4 30L230.4 85.6l-55.6-55.6C155.5 10.7 129.8 0 102.4 0S49.3 10.7 30 30C10.7 49.3 0 75 0 102.4c0 27.4 10.7 53.1 30 72.4L85.6 230.4l-55.6 55.6C10.7 305.3 0 331 0 358.4c0 27.4 10.7 53.1 30 72.4C49.3 450.1 75 460.8 102.4 460.8s53.1-10.7 72.4-30l55.6-55.6 55.6 55.6c19.3 19.3 45.1 30 72.4 30 27.4 0 53.1-10.7 72.4-30 19.3-19.3 30-45.1 30-72.4 0-27.4-10.7-53.1-30-72.4L375.2 230.4zM313.1 57.1C325.2 45.1 341.3 38.4 358.4 38.4s33.2 6.7 45.3 18.7S422.4 85.3 422.4 102.4s-6.7 33.2-18.7 45.3l-64.6 64.6 -90.5-90.5L313.1 57.1zM147.7 403.7c-12.1 12.1-28.2 18.7-45.3 18.7s-33.2-6.7-45.3-18.7S38.4 375.5 38.4 358.4s6.7-33.2 18.7-45.3l64.6-64.6 90.5 90.5L147.7 403.7zM403.7 403.7c-12.1 12.1-28.2 18.7-45.3 18.7s-33.2-6.7-45.3-18.7l-256-256C45.1 135.6 38.4 119.5 38.4 102.4s6.7-33.2 18.7-45.3S85.3 38.4 102.4 38.4s33.2 6.7 45.3 18.7l256 256c12.1 12.1 18.7 28.2 18.7 45.3S415.7 391.6 403.7 403.7z" class="a"/><rect x="345.6" y="53.4" transform="matrix(0.7072 -0.7071 0.7071 0.7072 58.1401 272.8068)" width="25.6" height="25.6" class="a"/><rect x="381.8" y="89.6" transform="matrix(0.7071 -0.7072 0.7072 0.7071 43.1846 309.0291)" width="25.6" height="25.6" class="a"/><rect x="345.6" y="125.8" transform="matrix(0.7072 -0.7071 0.7071 0.7072 6.9823 293.9793)" width="25.6" height="25.6" class="a"/><rect x="309.4" y="89.6" transform="matrix(0.707 -0.7072 0.7072 0.707 22.0029 257.8568)" width="25.6" height="25.6" class="a"/><rect x="381.8" y="345.6" transform="matrix(0.7072 -0.7071 0.7071 0.7072 -137.8634 383.9523)" width="25.6" height="25.6" class="a"/><rect x="345.6" y="381.8" transform="matrix(0.707 -0.7072 0.7072 0.707 -174.0671 369.097)" width="25.6" height="25.6" class="a"/><rect x="309.4" y="345.6" transform="matrix(0.7072 -0.707 0.707 0.7072 -159.0358 332.7274)" width="25.6" height="25.6" class="a"/><rect x="345.6" y="309.4" transform="matrix(0.707 -0.7072 0.7072 0.707 -122.8374 347.8567)" width="25.6" height="25.6" class="a"/><rect x="125.8" y="89.6" transform="matrix(0.7072 -0.707 0.707 0.7072 -31.824 127.9996)" width="25.6" height="25.6" class="a"/><rect x="89.6" y="125.8" transform="matrix(0.707 -0.7072 0.7072 0.707 -68.0248 113.0482)" width="25.6" height="25.6" class="a"/><rect x="53.4" y="89.6" transform="matrix(0.7072 -0.7071 0.7071 0.7072 -53.0161 76.7993)" width="25.6" height="25.6" class="a"/><rect x="89.6" y="53.4" transform="matrix(0.707 -0.7072 0.7072 0.707 -16.8096 91.8127)" width="25.6" height="25.6" class="a"/><rect x="89.6" y="309.4" transform="matrix(0.7072 -0.7071 0.7071 0.7072 -197.8435 166.7527)" width="25.6" height="25.6" class="a"/><rect x="125.8" y="345.6" transform="matrix(0.707 -0.7072 0.7072 0.707 -212.8297 203.0404)" width="25.6" height="25.6" class="a"/><rect x="89.6" y="381.8" transform="matrix(0.7072 -0.7071 0.7071 0.7072 -249.008 187.9606)" width="25.6" height="25.6" class="a"/><rect x="53.4" y="345.6" transform="matrix(0.707 -0.7072 0.7072 0.707 -234.0667 151.8221)" width="25.6" height="25.6" class="a"/></svg>