<svg xmlns="http://www.w3.org/2000/svg" width="512" height="512" viewBox="0 0 737.4 737.4">
    <path d="M674.4 123.5c-0.2-9.8-7.2-18.2-17-19.5 -45.5-6.3-90.4-17.1-134.4-33.2 -43.8-16-92.3-38.4-144.5-67.9 -6.6-3.7-12.9-3.8-19.5 0 -51.9 29.5-100 51.8-144.2 67.9 -44 16.1-88.9 27-134.1 33.2 -9.8 1.3-16.6 9.8-17.7 19.5 -4.3 185.4 36.3 337 121.4 454.9 46.4 64.2 104.4 116.3 174.5 156.1 5.4 4 13.9 3.7 20.2 0 69.6-40.4 127.5-92.2 173.8-156.1C638.3 460.6 678.5 308.9 674.4 123.5zM520.5 555.7c-40.2 55.6-90.7 101.9-151.8 139.1 -61.1-37.2-111.8-83.4-151.8-139.1 -77.5-108-115.3-246.1-113.8-414.5 42.6-6.9 84.9-18.4 127.2-34 42.3-15.5 88.5-36.9 138.4-64 49.9 27.1 95.8 48.4 138 64 42.3 15.5 84.9 27.1 127.6 34C635.8 310.7 597.7 449 520.5 555.7z" fill="#fe4e50"/>
</svg>
