<svg xmlns="http://www.w3.org/2000/svg" width="72" height="72" viewBox="0 0 72.4 72.4"><path d="M22.6 2.6c-4.5 1.8-8.5 4.5-12 7.9C7.1 14.1 4.5 18.1 2.7 22.6 0.9 26.9 0 31.5 0 36.2c0 4.7 0.9 9.3 2.7 13.6 1.8 4.5 4.5 8.5 7.9 12 3.5 3.5 7.5 6.1 12 7.9 4.3 1.8 8.9 2.6 13.6 2.6 4.7 0 9.3-0.9 13.6-2.6 4.5-1.8 8.5-4.5 12-7.9 3.5-3.5 6.1-7.5 7.9-12 1.8-4.3 2.6-8.9 2.6-13.6 0-4.7-0.9-9.3-2.6-13.6 -1.8-4.5-4.5-8.5-7.9-12s-7.5-6.1-12-7.9C45.5 0.9 40.9 0 36.2 0 31.5 0 26.9 0.9 22.6 2.6zM9 51.4c-1.7-1.1-3.3-2.4-4.8-3.8 -2.2-6.1-2.5-12.7-1.1-19 0.7-1.3 1.4-2.6 2.3-3.8 0.3-0.4 0.5-0.8 0.8-1.1l8.2 4.8c0 0.1 0 0.1 0 0.2 0 4.4 0.4 8.8 1.3 13 0 0 0 0 0 0l-6.3 9.9C9.3 51.6 9.2 51.5 9 51.4zM33.3 68.2c1.4 0.7 2.9 1.3 4.3 1.8 -6.3 0.3-12.7-1.2-18.4-4.4L33 68C33.1 68.1 33.2 68.1 33.3 68.2zM33.3 65.7L17.1 62.9c-1.9-2.3-3.6-4.7-5.1-7.3 -0.4-0.7-0.8-1.3-1.1-2l6.3-9.9c0.1 0 0.3 0.1 0.5 0.1 4 1.1 8 1.8 12 2.4 0.2 0 0.4 0.1 0.6 0.1l7.6 13.1c-1.3 1.9-2.6 3.7-4 5.5C33.8 65.2 33.5 65.4 33.3 65.7zM60.2 60.1c-1.3 1.3-2.7 2.4-4.1 3.5 -0.2-1.9-0.6-3.7-1.2-5.6l8.1-15.1c2.2-1 4.4-2.2 6.4-3.6 0.3-0.2 0.5-0.4 0.6-0.6C69.4 46.6 66.1 54.2 60.2 60.1zM59.8 40.6c0.3 0.6 0.6 1.2 0.9 1.7l-7.8 14.6c0 0-0.1 0-0.1 0 -4.2 0.8-8.5 1.2-12.8 1.2l-7.8-13.5c1.2-2.3 2.4-4.5 3.6-6.8 0.8-1.5 1.6-3.1 2.4-4.6l16.1-1.7C56.3 34.5 58.2 37.5 59.8 40.6zM56.5 23.3c-0.8 2-1.6 4-2.4 6l-15.7 1.6c-0.2-0.2-0.4-0.5-0.6-0.7 -1.9-2.1-3.7-4.2-5.6-6.3 0 0 0 0 0.1-0.1 -0.8-0.8-1.5-1.5-2.3-2.3l4.4-13.2c0.3-0.1 0.6-0.1 0.9-0.2 2.4-0.2 4.8-0.5 7.1-0.7 1.5-0.1 2.9-0.1 4.4 0l10.8 12.2C57.3 20.9 57 22.1 56.5 23.3zM60.2 12.2c3 3 5.3 6.4 6.9 10 -2-1.4-4.2-2.5-6.5-3.5 -0.4-0.1-0.7-0.3-1.1-0.4L48.9 6.4c0.1-0.5 0.1-1 0.1-1.6C53.1 6.5 56.9 8.9 60.2 12.2zM25.3 4.2c0 0 0.1 0.1 0.1 0.1 2.4 0.8 4.7 2.1 6.7 3.6l-4.1 12.3c0 0 0 0-0.1 0 -0.8 0.3-1.7 0.7-2.5 1 -3.4 1.5-6.7 3.3-9.8 5.3l-8.1-4.8c0-0.3 0.1-0.5 0.1-0.7 0.5-1.4 1.1-2.9 1.7-4.3 0.5-1.1 1-2.1 1.6-3.2 0.4-0.4 0.8-0.8 1.2-1.3 3.8-3.8 8.4-6.6 13.2-8.2C25.4 4.1 25.4 4.1 25.3 4.2z"/></svg>