<svg xmlns="http://www.w3.org/2000/svg" width="512" height="512" viewBox="0 0 951 951"><style>.a{fill:#fe4e50;}</style><path d="M366.7 838v-15 -15H74c-1.4 0-2.5-1.1-2.5-2.5v-773c0-1.4 1.1-2.5 2.5-2.5H551.8c1.4 0 2.5 1.1 2.5 2.5v80.4h15 15V32.5C584.3 14.6 569.7 0 551.8 0H74C56.1 0 41.5 14.6 41.5 32.5v773c0 17.9 14.6 32.5 32.5 32.5H366.7z" class="a"/><path d="M892 143H584.3h-15 -15H414.2c-9.7 0-17.5 7.8-17.5 17.5v647.6 15 15 95.4c0 9.7 7.8 17.5 17.5 17.5h477.8c9.7 0 17.5-7.8 17.5-17.5v-773C909.5 150.8 901.6 143 892 143z" class="a"/></svg>