<svg xmlns="http://www.w3.org/2000/svg" width="58" height="58" viewBox="0 0 57.6 57.6" preserveAspectRatio="xMidYMid meet"><g transform="matrix(0.00693851 0 0 -0.00693467 -0.02949172 57.599994)"><path d="m3835 8304c-16-2-79-9-140-15C3330 8253 2888 8138 2536 7988 1639 7607 904 6925 459 6065 231 5624 93 5178 23 4655-2 4468-2 3842 23 3658 147 2747 494 1999 1103 1332c67-74 145-154 174-179 29-24 53-49 53-54 0-5-143-185-317-400C838 485 687 295 677 277 649 227 657 124 693 76 730 29 787 0 846 0c97 0 103 6 458 444l328 403 116-83c65-46 185-124 267-173 522-310 1056-493 1665-568 207-25 735-25 940 0 763 95 1432 361 2019 800 53 40 103 78 112 84 15 11 44-36 257-410 132-232 253-434 269-449 36-34 73-48 129-48 59 0 103 19 141 63 38 43 57 105 48 157-4 22-114 227-269 501l-264 463 116 121c264 276 519 639 694 990 219 436 351 881 415 1395 25 205 25 733 0 940-75 605-261 1151-567 1663-307 515-735 967-1235 1306-548 372-1142 595-1827 687-89 12-217 17-458 19-184 2-348 1-365-1zm763-398c269-36 487-85 725-162C6394 7394 7262 6571 7673 5515 8035 4585 8010 3547 7604 2630 6910 1065 5234 156 3550 431 2161 658 1002 1651 566 2987c-79 245-134 493-168 773-20 163-17 661 5 835 93 728 352 1342 818 1934 108 137 423 452 560 560 641 504 1292 761 2109 835 102 9 600-4 708-18z"/><path d="m3895 6780c-129-13-270-39-411-75-476-122-942-403-1276-772-177-195-309-390-424-628-147-304-224-581-255-920-14-145-6-460 15-600 58-388 204-771 415-1086 422-629 1064-1036 1812-1150 173-26 530-32 694-10 731 94 1368 463 1801 1043 273 366 445 794 505 1263 22 164 16 521-10 694-177 1161-1070 2052-2236 2227-117 18-512 27-630 14zm573-395c553-80 1053-361 1420-800 210-251 378-588 456-915 68-284 76-646 20-935-185-961-977-1697-1954-1815-125-15-412-12-547 5-409 53-825 235-1138 497-448 375-728 881-806 1458-19 138-17 449 5 590 123 805 641 1466 1392 1774 188 77 428 136 634 156 123 11 387 4 518-15z"/><path d="m3098 5320c-105-32-160-168-109-269 12-23 197-212 454-465l435-428-440-436c-258-256-446-450-454-469-17-39-18-111-3-150 13-35 55-80 94-101 39-20 131-20 171 1 17 9 228 211 468 448l437 432 82-79c45-43 242-237 437-430 195-194 369-359 385-367 132-65 285 25 285 168 0 81-18 102-474 550l-438 430 445 440c380 376 447 446 456 480 15 55 14 89-4 133-42 100-154 147-253 107-24-10-121-99-272-248-129-128-328-323-441-435l-206-204-445 440c-369 366-451 442-484 451-45 12-87 13-126 1z"/></g></svg>