<svg xmlns="http://www.w3.org/2000/svg" width="58" height="58" viewBox="0 0 57.6 57.6" preserveAspectRatio="xMidYMid meet">
    <g transform="matrix(0.00693851 0 0 -0.00693467 -386.30447 444.29999)"><path
        d="m59506.2 64067.3c-16-2-79-9-140-15-365-36-807-151-1159-301-897-381-1632-1063-2077-1923-228-441-366-887-436-1410-25-187-25-813 0-997 124-911 471-1659 1080-2326 67-74 145-154 174-179 29-24 53-49 53-54 0-5-143-185-317-400-175-214-326-404-336-422-28-50-20-153 16-201 37-47 94-76 153-76 97 0 103 6 458 444l328 403 116-83c65-46 185-124 267-173 522-310 1056-493 1665-568 207-25 735-25 940 0 763 95 1432 361 2019 800 53 40 103 78 112 84 15 11 44-36 257-410 132-232 253-434 269-449 36-34 73-48 129-48 59 0 103 19 141 63 38 43 57 105 48 157-4 22-114 227-269 501l-264 463 116 121c264 276 519 639 694 990 219 436 351 881 415 1395 25 205 25 733 0 940-75 605-261 1151-567 1663-307 515-735 967-1235 1306-548 372-1142 595-1827 687-89 12-217 17-458 19-184 2-348 1-365-1zm763-398c269-36 487-85 725-162 1071-350 1939-1173 2350-2229 362-930 337-1968-69-2885-694-1565-2370-2474-4054-2199-1389 227-2548 1220-2984 2556-79 245-134 493-168 773-20 163-17 661 5 835 93 728 352 1342 818 1934 108 137 423 452 560 560 641 504 1292 761 2109 835 102 9 600-4 708-18z"/><path
        d="m59567.9 62540.5c-129-13-270-39-411-75-476-122-942-403-1276-772-177-195-309-390-424-628-147-304-224-581-255-920-14-145-6-460 15-600 58-388 204-771 415-1086 422-629 1064-1036 1812-1150 173-26 530-32 694-10 731 94 1368 463 1801 1043 273 366 445 794 505 1263 22 164 16 521-10 694-177 1161-1070 2052-2236 2227-117 18-512 27-630 14zm573-395c553-80 1053-361 1420-800 210-251 378-588 456-915 68-284 76-646 20-935-185-961-977-1697-1954-1815-125-15-412-12-547 5-409 53-825 235-1138 497-448 375-728 881-806 1458-19 138-17 449 5 590 123 805 641 1466 1392 1774 188 77 428 136 634 156 123 11 387 4 518-15z"/><path
        d="m60741.7 60990.6c-14-6-37-22-52-35-14-14-241-383-505-820-263-436-481-794-484-794-4 0-172 161-373 358-202 196-386 367-408 380-117 64-263-14-276-148-9-100-14-94 500-595 469-457 525-505 587-505 48 0 103 21 137 53 37 35 1115 1815 1135 1874 27 82-16 184-93 222-48 23-124 27-168 10z"/></g>
</svg>
