<svg xmlns="http://www.w3.org/2000/svg" width="512" height="512" viewBox="0 0 950 950"><style>.a{fill:#fe4e50;}</style><path d="M270.2 621.4c64.8-23.8 104.6-72.7 138.4-127.6L291.6 236.5c-5.1-11.1-5.5-23.6-1.2-35.1 4.3-11.5 12.8-20.6 24-25.6 6-2.7 12.4-4.1 18.9-4.1 13.9 0 26.9 6.3 35.5 16.8 49.4-4.2 91.2-27.9 131.6-58.4 -33.2-33.2-66.4-66.4-99.6-99.6 -3.9-3.9-12-5.7-17.9-3.7C206.4 86 211.1 326.5 38.7 389.9l-6.4-6.4c-6.2-6.2-16.2-6.2-22.4 0 -6.2 6.2-6.2 16.2 0 22.4l539.4 539.4c3.1 3.1 7.1 4.6 11.2 4.6s8.1-1.5 11.2-4.6c6.2-6.2 6.2-16.2 0-22.4L270.2 621.4z" class="a"/><path d="M816.8 9.9c-2.3-5-9.3-9.6-15.4-9.8C798.8 0 796.1 0 793.5 0 680 0 606.1 87.1 521.8 151.5c-49.4 37.8-102.3 67.7-168.9 67.7 -0.5 0-1 0-1.4 0l-3.7-8.2c-2.6-5.8-8.4-9.3-14.4-9.3 -2.2 0-4.4 0.5-6.5 1.4 -8 3.6-11.5 13-7.9 20.9l108.2 238.2 207.3 456.3c1.8 4 5.1 6.8 8.8 8.3 1.8 0.7 3.7 1 5.6 1 2.2 0 4.4-0.5 6.5-1.4 8-3.6 11.5-13 7.9-20.9l-176.4-388.3c0.5 0 1 0 1.4 0 180.1 0 260.5-219.2 440.6-219.2 2.6 0 5.2 0 7.9 0.1 0.2 0 0.3 0 0.5 0 5.8 0 8.9-3.5 6.6-8.4C901.6 196.5 859.2 103.2 816.8 9.9z" class="a"/></svg>