<?xml version="1.0" encoding="iso-8859-1"?>
<!-- Generator: Adobe Illustrator 19.0.0, SVG Export Plug-In . SVG Version: 6.00 Build 0)  -->
<svg xmlns="http://www.w3.org/2000/svg" xmlns:xlink="http://www.w3.org/1999/xlink" version="1.1" id="Layer_1" x="0px" y="0px" viewBox="0 0 512 512" style="enable-background:new 0 0 512 512;" xml:space="preserve" width="512px" height="512px">
<g>
	<g>
		<path d="M315.528,313.54c-17.121-17.12-39.917-26.549-64.19-26.549c-24.271,0-47.068,9.428-64.188,26.548    c-35.395,35.396-35.395,92.987-0.001,128.381c17.121,17.12,39.918,26.549,64.19,26.549c24.272,0,47.069-9.429,64.189-26.549    c17.121-17.121,26.549-39.917,26.549-64.189C342.077,353.457,332.649,330.661,315.528,313.54z M303.995,430.386    c-14.041,14.041-32.74,21.773-52.657,21.773s-38.617-7.732-52.657-21.773c-29.035-29.034-29.035-76.278,0-105.313    c14.041-14.041,32.74-21.772,52.656-21.772c19.916,0,38.616,7.732,52.657,21.773c14.041,14.038,21.774,32.739,21.774,52.656    C325.768,397.646,318.036,416.347,303.995,430.386z" fill="#FFFFFF"/>
	</g>
</g>
<g>
	<g>
		<path d="M453.99,131.068l-67.173-67.173c0-0.001-0.001-0.001-0.002-0.002L325.308,2.388c-3.185-3.184-8.349-3.184-11.532,0    L94.885,221.277c-52.351,52.353-52.351,137.536,0,189.888l61.508,61.508C181.754,498.033,215.472,512,251.337,512    c35.864,0,69.583-13.967,94.943-39.326c52.352-52.353,52.352-137.535,0-189.888l-16.239-16.238l123.948-123.944    C457.175,139.417,457.175,134.254,453.99,131.068z M113.15,226.08l29.582-29.583l27.584,27.584l-30.546,30.547l-27.584-27.584    L113.15,226.08z M118.548,397.03c0.652,4.67,1.562,9.305,2.722,13.875c0.092,0.367,0.186,0.735,0.283,1.103    c0.311,1.186,0.635,2.369,0.98,3.548c0.025,0.087,0.047,0.175,0.072,0.261l-16.186-16.186    c-44.054-44.054-45.904-114.567-5.564-160.851l33.148,33.148c1.592,1.592,3.68,2.388,5.766,2.388s4.174-0.796,5.766-2.388    l42.079-42.08c1.53-1.53,2.389-3.603,2.389-5.767c0-2.164-0.86-4.236-2.389-5.767l-33.35-33.35L319.542,19.687l49.975,49.976    c-13.734,13.734-27.468,27.468-41.202,41.202c-28.48,28.48-56.962,56.962-85.442,85.442    c-24.215,24.215-48.429,48.43-72.644,72.644c-12.983,12.983-25.841,25.637-34.969,41.823c-1.174,2.083-2.295,4.196-3.36,6.338    C119.699,341.646,114.752,369.86,118.548,397.03z M312.744,260.781c-1.53,1.53-2.389,3.603-2.389,5.767s0.859,4.236,2.389,5.767    l22.005,22.004c45.993,45.993,45.993,120.828,0,166.821c-22.28,22.28-51.902,34.55-83.411,34.55    c-31.51,0-61.132-12.269-83.411-34.55c-5.75-5.749-10.78-11.949-15.091-18.487c-1.078-1.634-2.111-3.29-3.099-4.965    c-26.995-45.756-19.331-105.849,18.19-143.369L381.051,81.195l55.64,55.641L312.744,260.781z" fill="#FFFFFF"/>
	</g>
</g>
</svg>
