<svg xmlns="http://www.w3.org/2000/svg" viewBox="0 0 512 512" width="512" height="512"><style>.a{fill:#FFF;}</style><path d="M315.5 313.5c-17.1-17.1-39.9-26.5-64.2-26.5 -24.3 0-47.1 9.4-64.2 26.5 -35.4 35.4-35.4 93 0 128.4 17.1 17.1 39.9 26.5 64.2 26.5 24.3 0 47.1-9.4 64.2-26.5 17.1-17.1 26.5-39.9 26.5-64.2C342.1 353.5 332.6 330.7 315.5 313.5zM304 430.4c-14 14-32.7 21.8-52.7 21.8s-38.6-7.7-52.7-21.8c-29-29-29-76.3 0-105.3 14-14 32.7-21.8 52.7-21.8 19.9 0 38.6 7.7 52.7 21.8 14 14 21.8 32.7 21.8 52.7C325.8 397.6 318 416.3 304 430.4z" class="a"/><path d="M454 131.1l-67.2-67.2c0 0 0 0 0 0L325.3 2.4c-3.2-3.2-8.3-3.2-11.5 0L94.9 221.3c-52.4 52.4-52.4 137.5 0 189.9l61.5 61.5C181.8 498 215.5 512 251.3 512c35.9 0 69.6-14 94.9-39.3 52.4-52.4 52.4-137.5 0-189.9l-16.2-16.2 123.9-123.9C457.2 139.4 457.2 134.3 454 131.1zM113.2 226.1l29.6-29.6 27.6 27.6 -30.5 30.5 -27.6-27.6L113.2 226.1zM118.5 397c0.7 4.7 1.6 9.3 2.7 13.9 0.1 0.4 0.2 0.7 0.3 1.1 0.3 1.2 0.6 2.4 1 3.5 0 0.1 0 0.2 0.1 0.3l-16.2-16.2c-44.1-44.1-45.9-114.6-5.6-160.9l33.1 33.1c1.6 1.6 3.7 2.4 5.8 2.4s4.2-0.8 5.8-2.4l42.1-42.1c1.5-1.5 2.4-3.6 2.4-5.8 0-2.2-0.9-4.2-2.4-5.8l-33.3-33.3L319.5 19.7l50 50c-13.7 13.7-27.5 27.5-41.2 41.2 -28.5 28.5-57 57-85.4 85.4 -24.2 24.2-48.4 48.4-72.6 72.6 -13 13-25.8 25.6-35 41.8 -1.2 2.1-2.3 4.2-3.4 6.3C119.7 341.6 114.8 369.9 118.5 397zM312.7 260.8c-1.5 1.5-2.4 3.6-2.4 5.8s0.9 4.2 2.4 5.8l22 22c46 46 46 120.8 0 166.8 -22.3 22.3-51.9 34.6-83.4 34.6 -31.5 0-61.1-12.3-83.4-34.5 -5.7-5.7-10.8-11.9-15.1-18.5 -1.1-1.6-2.1-3.3-3.1-5 -27-45.8-19.3-105.8 18.2-143.4L381.1 81.2l55.6 55.6L312.7 260.8z" class="a"/></svg>